<svg width="56" height="56" viewBox="0 0 56 56" fill="none" xmlns="http://www.w3.org/2000/svg">
<g id="Layer_1">
<g id="Group">
<path id="Vector" d="M30.3625 4.10156H32.0031V5.74219H30.3625V4.10156Z" fill="#FFA85C"/>
<path id="Vector_2" d="M33.6438 5.74219H35.2844V7.38281H33.6438V5.74219Z" fill="#FFA85C"/>
<path id="Vector_3" d="M50.1099 15.5947C47.5167 11.5524 43.8802 8.30495 39.5835 6.18898C37.078 2.4593 32.8209 0 28 0C25.8028 0 23.6112 0.529156 21.6623 1.53016L22.4119 2.98955C24.1545 2.09442 26.0345 1.64062 28 1.64062C34.7848 1.64062 40.3046 7.16045 40.3046 13.9452V16.8105H15.6954V13.9452C15.6954 9.90511 17.6965 6.11461 21.0485 3.80581L20.1178 2.45459C18.643 3.47047 17.4003 4.74086 16.4303 6.18209C12.1275 8.29795 8.48597 11.548 5.88984 15.5947C3.18161 19.8166 1.75 24.7114 1.75 29.75C1.75 33.9255 2.75472 38.0751 4.65719 41.7648V53.0928H15.9852C19.6756 54.9953 23.8253 56 28 56C32.8287 56 37.5495 54.6771 41.652 52.1744L40.7975 50.7737C37.1851 52.9775 33.0603 54.205 28.8203 54.3455V45.4163L33.278 37.5959L42.5424 40.4747C45.4789 41.3871 46.4214 42.6785 46.421 45.7892V46.0591C45.1683 47.4764 43.746 48.7599 42.1685 49.8727L43.1142 51.2133C46.4822 48.8374 49.2808 45.6608 51.2073 42.0268C53.1979 38.2723 54.25 34.027 54.25 29.75C54.25 24.7114 52.8184 19.8166 50.1099 15.5947ZM23.9717 36.4756L24.3827 34.3743C25.5293 34.7944 26.7492 35.0137 28 35.0137C29.2509 35.0137 30.4707 34.7944 31.6172 34.3743L32.0283 36.4756L28 43.5426L23.9717 36.4756ZM33.1506 33.6672C34.0128 33.1824 34.8152 32.5731 35.5346 31.847C37.357 30.0082 38.4401 27.6398 38.6328 25.1065H40.3829C40.5441 25.908 40.9316 26.7444 41.3635 27.6744C42.0831 29.2242 42.8987 30.9808 42.7471 32.9113C42.6308 34.3933 41.968 36.9452 38.8732 37.6168L33.6028 35.9791L33.1506 33.6672ZM38.664 18.4511H41.125C41.3422 18.4511 41.5477 18.537 41.7036 18.6927C41.8595 18.8485 41.9452 19.054 41.9452 19.2713L41.9451 22.6454C41.9451 23.0977 41.5772 23.4658 41.1248 23.4658H38.664V18.4511ZM18.9767 18.4511H37.0233V24.2562C36.879 26.6127 35.1187 28.3876 32.9218 28.3876H30.3198C29.9812 27.4329 29.0695 26.747 28 26.747C26.643 26.747 25.5391 27.8509 25.5391 29.2079C25.5391 30.565 26.6431 31.6689 28 31.6689C29.0695 31.6689 29.9812 30.983 30.3198 30.0283H32.9218C33.7975 30.0283 34.642 29.8255 35.4057 29.4439C35.1 29.8842 34.7553 30.3028 34.3693 30.6922C32.656 32.4209 30.3939 33.373 28 33.373C25.6061 33.373 23.344 32.4209 21.6307 30.6922C19.9193 28.9653 18.9768 26.6903 18.9768 24.2862L18.9767 18.4511ZM28.8203 29.2079C28.8203 29.6603 28.4524 30.0283 28 30.0283C27.5476 30.0283 27.1797 29.6603 27.1797 29.2079C27.1797 28.7556 27.5477 28.3876 28 28.3876C28.4524 28.3876 28.8203 28.7556 28.8203 29.2079ZM20.4653 31.847C21.1848 32.5731 21.9871 33.1824 22.8493 33.6672L22.397 35.979L17.1267 37.6167C14.0319 36.9451 13.3691 34.3933 13.2526 32.9112C13.101 30.9808 13.9167 29.2241 14.6362 27.6743C15.068 26.7443 15.4557 25.9079 15.6169 25.1064H17.3671C17.5598 27.6398 18.6429 30.0082 20.4653 31.847ZM17.336 23.4658H14.8751C14.4228 23.4658 14.0548 23.0977 14.0548 22.6454L14.0547 19.2714C14.0547 18.8192 14.4227 18.4511 14.875 18.4511H17.336V23.4658ZM6.20353 41.1823C4.3633 37.6821 3.39062 33.7288 3.39062 29.75C3.39062 25.0261 4.73244 20.4376 7.27092 16.4806C9.26658 13.3698 11.9209 10.761 15.0352 8.82853C14.3968 10.4373 14.0548 12.1696 14.0548 13.9452V16.9516C13.1 17.2902 12.4142 18.202 12.4142 19.2715L12.4143 22.6455C12.4143 23.684 13.061 24.5735 13.9727 24.9343C13.8236 25.5275 13.4934 26.2403 13.1482 26.9835C12.3834 28.6305 11.4318 30.6802 11.617 33.0397C11.8074 35.4635 12.8787 37.3186 14.6433 38.3884L12.9708 38.9082C9.34927 40.0335 7.93833 41.9628 7.93833 45.7895L7.93844 51.4523H6.29781V41.3617L6.20353 41.1823ZM16.3883 51.4522H9.57895L9.57884 45.7894C9.57884 42.6787 10.5213 41.3872 13.4575 40.4749L22.7219 37.5961L27.1796 45.4165V54.3446C23.4801 54.2205 19.8276 53.26 16.5675 51.5465L16.3883 51.4522ZM47.9566 44.1395C47.5702 41.3829 46.0885 39.8587 43.0292 38.9081L41.3565 38.3883C43.1212 37.3185 44.1924 35.4634 44.3827 33.0396C44.568 30.6801 43.6163 28.6304 42.8516 26.9834C42.5065 26.2402 42.1763 25.5274 42.0272 24.9342C42.9389 24.5735 43.5857 23.6838 43.5857 22.6454L43.5858 19.2714C43.5859 18.6158 43.3295 17.9983 42.8636 17.5326C42.5997 17.2687 42.2859 17.0746 41.9452 16.9537V13.945C41.9452 12.1423 41.6013 10.4183 40.9758 8.83531C44.0853 10.7671 46.7358 13.3733 48.7291 16.4804C51.2676 20.4376 52.6094 25.0261 52.6094 29.75C52.6094 34.9736 50.9398 39.9978 47.9566 44.1395Z" fill="#00171F"/>
<path id="Vector_4" d="M32.9218 46.8398H39.4843V48.4805H32.9218V46.8398Z" fill="#FFA85C"/>
</g>
</g>
</svg>
