<svg width="56" height="56" viewBox="0 0 56 56" fill="none" xmlns="http://www.w3.org/2000/svg">
<g id="Capa_1">
<g id="Group">
<path id="Vector" d="M35.8344 42.0281V35.8909C35.8344 33.5048 33.8931 31.5635 31.5071 31.5635H24.493C22.1069 31.5635 20.1657 33.5048 20.1657 35.8909V42.0281C20.1657 43.4474 21.3204 44.602 22.7395 44.602C23.0686 44.602 23.3832 44.5392 23.6727 44.4262V53.4261C23.6727 54.8454 24.8274 55.9999 26.2465 55.9999C26.9235 55.9999 27.5401 55.7368 28 55.3078C28.46 55.7368 29.0765 55.9999 29.7535 55.9999C31.1728 55.9999 32.3273 54.8454 32.3273 53.4261V44.4262C32.6168 44.5393 32.9314 44.602 33.2605 44.602C34.6798 44.602 35.8344 43.4473 35.8344 42.0281ZM32.3273 42.0281V36.7675C32.3273 36.3145 31.96 35.9472 31.507 35.9472C31.054 35.9472 30.6867 36.3145 30.6867 36.7675V53.4261C30.6867 53.9407 30.268 54.3593 29.7535 54.3593C29.239 54.3593 28.8203 53.9406 28.8203 53.4261V42.0281C28.8203 41.5751 28.453 41.2078 28 41.2078C27.547 41.2078 27.1797 41.5751 27.1797 42.0281V53.4261C27.1797 53.9407 26.761 54.3593 26.2465 54.3593C25.732 54.3593 25.3133 53.9406 25.3133 53.4261V36.7675C25.3133 36.3145 24.946 35.9472 24.493 35.9472C24.04 35.9472 23.6727 36.3145 23.6727 36.7675V42.0281C23.6727 42.5428 23.254 42.9613 22.7395 42.9613C22.225 42.9613 21.8063 42.5428 21.8063 42.0281V35.8909C21.8063 34.4094 23.0116 33.2041 24.493 33.2041H31.5071C32.9886 33.2041 34.1938 34.4094 34.1938 35.8909V42.0281C34.1938 42.5428 33.7751 42.9613 33.2606 42.9613C32.7461 42.9613 32.3273 42.5428 32.3273 42.0281Z" fill="#FFA85C"/>
<path id="Vector_2" d="M31.0123 27.5616C31.0123 25.9006 29.6611 24.5493 28 24.5493C26.3389 24.5493 24.9877 25.9005 24.9877 27.5616C24.9877 29.2226 26.3389 30.5738 28 30.5738C29.6611 30.5738 31.0123 29.2226 31.0123 27.5616ZM26.6283 27.5616C26.6283 26.8053 27.2436 26.1899 28 26.1899C28.7564 26.1899 29.3717 26.8052 29.3717 27.5616C29.3717 28.3179 28.7564 28.9332 28 28.9332C27.2436 28.9332 26.6283 28.3179 26.6283 27.5616Z" fill="#FFA85C"/>
<path id="Vector_3" d="M20.4911 28.4385C20.4911 26.7775 19.1399 25.4263 17.4789 25.4263C15.8179 25.4263 14.4666 26.7775 14.4666 28.4385C14.4666 30.0994 15.8178 31.4508 17.4789 31.4508C19.1398 31.4506 20.4911 30.0994 20.4911 28.4385ZM16.1072 28.4385C16.1072 27.6821 16.7225 27.0669 17.4789 27.0669C18.2352 27.0669 18.8505 27.6821 18.8505 28.4385C18.8505 29.1948 18.2352 29.8101 17.4789 29.8101C16.7226 29.81 16.1072 29.1948 16.1072 28.4385Z" fill="#00171F"/>
<path id="Vector_4" d="M20.9859 46.4684C20.5329 46.4684 20.1656 46.8357 20.1656 47.2887V53.4261C20.1656 53.9407 19.7469 54.3593 19.2324 54.3593C18.7179 54.3593 18.2992 53.9406 18.2992 53.4261V42.0281C18.2992 41.5751 17.9319 41.2078 17.4789 41.2078C17.0259 41.2078 16.6586 41.5751 16.6586 42.0281V53.4261C16.6586 53.9407 16.2399 54.3593 15.7254 54.3593C15.2108 54.3593 14.7921 53.9406 14.7921 53.4261V37.6444C14.7921 37.1912 14.4248 36.824 13.9718 36.824C13.5187 36.824 13.1515 37.1912 13.1515 37.6444V43.7816C13.1515 44.2962 12.7328 44.7148 12.2183 44.7148C11.7038 44.7148 11.2851 44.2962 11.2851 43.7816V36.7675C11.2851 35.286 12.4904 34.0808 13.9718 34.0808H18.3556C18.8087 34.0808 19.176 33.7135 19.176 33.2605C19.176 32.8075 18.8087 32.4402 18.3556 32.4402H13.9718C11.5857 32.4402 9.64447 34.3815 9.64447 36.7675V43.7816C9.64447 45.2009 10.7991 46.3554 12.2183 46.3554C12.5474 46.3554 12.862 46.2926 13.1515 46.1797V53.4261C13.1515 54.8453 14.3061 55.9999 15.7254 55.9999C16.4024 55.9999 17.019 55.7367 17.4789 55.3078C17.9389 55.7367 18.5554 55.9999 19.2324 55.9999C20.6516 55.9999 21.8062 54.8452 21.8062 53.4261V47.2887C21.8062 46.8358 21.4389 46.4684 20.9859 46.4684Z" fill="#00171F"/>
<path id="Vector_5" d="M42.0282 32.4402H37.6444C37.1913 32.4402 36.824 32.8075 36.824 33.2605C36.824 33.7135 37.1913 34.0808 37.6444 34.0808H42.0282C43.5097 34.0808 44.7149 35.2861 44.7149 36.7675V43.7816C44.7149 44.2962 44.2962 44.7148 43.7817 44.7148C43.2672 44.7148 42.8485 44.2962 42.8485 43.7816V37.6444C42.8485 37.1912 42.4813 36.824 42.0282 36.824C41.5752 36.824 41.2079 37.1912 41.2079 37.6444V53.4261C41.2079 53.9407 40.7892 54.3593 40.2746 54.3593C39.76 54.3593 39.3414 53.9406 39.3414 53.4261V42.0281C39.3414 41.5751 38.9741 41.2078 38.5211 41.2078C38.0681 41.2078 37.7008 41.5751 37.7008 42.0281V53.4261C37.7008 53.9407 37.2821 54.3593 36.7676 54.3593C36.2531 54.3593 35.8344 53.9406 35.8344 53.4261V47.2887C35.8344 46.8357 35.4671 46.4684 35.0141 46.4684C34.5611 46.4684 34.1938 46.8357 34.1938 47.2887V53.4261C34.1938 54.8453 35.3485 55.9999 36.7676 55.9999C37.4446 55.9999 38.0612 55.7367 38.5211 55.3078C38.9811 55.7367 39.5976 55.9999 40.2746 55.9999C41.6939 55.9999 42.8485 54.8453 42.8485 53.4261V46.1797C43.138 46.2927 43.4526 46.3554 43.7817 46.3554C45.201 46.3554 46.3555 45.2009 46.3555 43.7816V36.7675C46.3556 34.3815 44.4143 32.4402 42.0282 32.4402Z" fill="#00171F"/>
<path id="Vector_6" d="M38.5211 31.4505C40.1821 31.4505 41.5334 30.0993 41.5334 28.4382C41.5334 26.7772 40.1822 25.426 38.5211 25.426C36.8601 25.426 35.5089 26.7772 35.5089 28.4382C35.5089 30.0993 36.8602 31.4505 38.5211 31.4505ZM38.5211 27.0668C39.2774 27.0668 39.8928 27.682 39.8928 28.4383C39.8928 29.1947 39.2775 29.81 38.5211 29.81C37.7648 29.81 37.1495 29.1948 37.1495 28.4383C37.1495 27.682 37.7649 27.0668 38.5211 27.0668Z" fill="#00171F"/>
<path id="Vector_7" d="M51.5396 15.3791C49.8101 11.6633 46.6827 8.48531 42.4951 6.18877C38.4724 3.98267 33.7603 2.76292 28.8203 2.64119V0.820312C28.8203 0.367281 28.453 0 28 0C27.547 0 27.1797 0.367281 27.1797 0.820312V2.64119C22.2397 2.76292 17.5275 3.98267 13.5049 6.18877C9.31733 8.48542 6.18986 11.6633 4.46042 15.3791C4.27842 15.7701 4.43034 16.2353 4.80802 16.4435C5.18591 16.6518 5.66016 16.532 5.89367 16.1696C6.41189 15.3653 8.06345 14.4997 10.4647 14.4997C12.866 14.4997 14.5175 15.3653 15.0358 16.1696C15.1547 16.3542 15.3428 16.4834 15.5577 16.5282C15.7725 16.573 15.9967 16.5298 16.1796 16.4082C17.7811 15.3431 22.232 14.583 27.1797 14.5065V21.8625C27.1797 22.3156 27.547 22.6828 28 22.6828C28.453 22.6828 28.8203 22.3156 28.8203 21.8625V14.5065C33.7681 14.583 38.2189 15.343 39.8204 16.4082C40.0031 16.5298 40.2271 16.573 40.4423 16.5282C40.6572 16.4834 40.8453 16.3541 40.9642 16.1696C41.4825 15.3653 43.134 14.4997 45.5353 14.4997C47.9367 14.4997 49.5881 15.3653 50.1063 16.1696C50.2624 16.4118 50.526 16.5456 50.7965 16.5456C50.9308 16.5456 51.0668 16.5126 51.192 16.4434C51.5697 16.2354 51.7216 15.7702 51.5396 15.3791ZM15.9199 14.6768C14.7845 13.5548 12.7457 12.8592 10.4648 12.8592C9.46072 12.8592 8.5038 12.994 7.65002 13.2405C10.6376 9.25105 15.5705 6.30908 21.327 5.00959C19.4581 6.4365 17.8252 8.46256 16.5841 10.9785C16.3836 11.3848 16.5505 11.8767 16.9568 12.0771C17.3633 12.2776 17.855 12.1107 18.0554 11.7043C20.3513 7.04977 24.0688 4.27098 28 4.27098C32.6932 4.27098 36.9602 8.20805 38.984 14.2343C36.4824 13.3787 32.4668 12.8592 28 12.8592C22.8074 12.8592 18.2225 13.5608 15.9199 14.6768ZM45.5353 12.8592C43.6162 12.8592 41.871 13.3529 40.6886 14.1773C39.7133 11.055 38.1702 8.36227 36.1781 6.33336C35.7004 5.84686 35.2044 5.40739 34.6931 5.01408C40.441 6.31586 45.3659 9.25575 48.3501 13.2405C47.4963 12.994 46.5393 12.8592 45.5353 12.8592Z" fill="#00171F"/>
</g>
</g>
</svg>
