<svg width="56" height="56" viewBox="0 0 56 56" fill="none" xmlns="http://www.w3.org/2000/svg">
<g id="Layer_1" clip-path="url(#clip0_13_13806)">
<g id="Group">
<path id="Vector" d="M21.8954 4.09399H13.331C12.8778 4.09399 12.5107 4.46128 12.5107 4.91431C12.5107 5.36734 12.8778 5.73462 13.331 5.73462H21.8954C22.3485 5.73462 22.7157 5.36734 22.7157 4.91431C22.7157 4.46128 22.3485 4.09399 21.8954 4.09399Z" fill="#FFA85C"/>
<path id="Vector_2" d="M6.60855 5.73462H9.1046C9.55774 5.73462 9.92491 5.36734 9.92491 4.91431C9.92491 4.46128 9.55774 4.09399 9.1046 4.09399H6.60855C6.15541 4.09399 5.78824 4.46128 5.78824 4.91431C5.78824 5.36734 6.15552 5.73462 6.60855 5.73462Z" fill="#FFA85C"/>
<path id="Vector_3" d="M6.60855 9.66699H15.1728C15.626 9.66699 15.9931 9.29971 15.9931 8.84668C15.9931 8.39365 15.626 8.02637 15.1728 8.02637H6.60855C6.15541 8.02637 5.78824 8.39365 5.78824 8.84668C5.78824 9.29971 6.15552 9.66699 6.60855 9.66699Z" fill="#FFA85C"/>
<path id="Vector_4" d="M21.8953 8.02637H19.3992C18.946 8.02637 18.5789 8.39365 18.5789 8.84668C18.5789 9.29971 18.946 9.66699 19.3992 9.66699H21.8953C22.3485 9.66699 22.7157 9.29971 22.7157 8.84668C22.7157 8.39365 22.3485 8.02637 21.8953 8.02637Z" fill="#FFA85C"/>
<path id="Vector_5" d="M50.779 17.8125C48.9135 17.8125 47.351 19.1326 46.9734 20.8883H42.4923C42.4472 20.433 42.3655 19.9776 42.2443 19.5258C41.9285 18.344 41.3712 17.2691 40.6173 16.3518L46.2512 10.7124C47.2863 11.7298 48.6527 12.2904 50.1061 12.2904C51.5783 12.2904 52.9618 11.7161 54.0006 10.6746C55.042 9.63397 55.6155 8.2495 55.6155 6.77633C55.6155 5.30316 55.042 3.9188 54.0011 2.87864C52.9612 1.83783 51.5781 1.2647 50.1061 1.2647C48.6341 1.2647 47.251 1.83794 46.2112 2.87864C45.17 3.91923 44.5967 5.30348 44.5967 6.77633C44.5967 7.70459 44.8248 8.59742 45.2537 9.39116C45.2483 9.39619 45.2426 9.40056 45.2375 9.40581L39.4559 15.193C39.1011 14.9023 38.7216 14.637 38.3165 14.4032C36.3682 13.2783 34.0993 12.9802 31.9282 13.5633C30.7291 13.8842 29.6601 14.4503 28.7596 15.193L26.1615 12.5925C26.4448 12.1583 26.6103 11.6405 26.6103 11.0843V2.76631C26.6102 1.24097 25.3701 0 23.8457 0H5.22867C3.70442 0 2.46422 1.24097 2.46422 2.76631V11.0844C2.46422 12.6097 3.70442 13.8507 5.22867 13.8507H11.6937C12.1469 13.8507 12.514 13.4834 12.514 13.0304C12.514 12.5774 12.1469 12.2101 11.6937 12.2101H5.22867C4.60896 12.2101 4.10485 11.7051 4.10485 11.0844V2.76631C4.10485 2.14561 4.60896 1.64062 5.22867 1.64062H23.8457C24.4654 1.64062 24.9695 2.14561 24.9695 2.76631V11.0844C24.9695 11.7051 24.4654 12.2101 23.8457 12.2101H15.4829C15.0298 12.2101 14.6626 12.5774 14.6626 13.0304C14.6626 13.4834 15.0298 13.8507 15.4829 13.8507H23.8457C24.2163 13.8507 24.5697 13.7769 24.8929 13.644L27.6025 16.3563C26.0663 18.2328 25.3538 20.7455 25.8292 23.2671L15.9994 28.9502C15.9986 28.9507 15.9981 28.9512 15.9973 28.9516C14.8401 27.5577 13.2865 26.5549 11.5011 26.0764C9.22228 25.4656 6.84206 25.7797 4.79949 26.9607C0.58144 29.3998 -0.869091 34.8172 1.56592 39.0365C2.74433 41.0832 4.64877 42.5469 6.92836 43.1583C7.68928 43.3624 8.46125 43.4633 9.22841 43.4633C10.7597 43.4633 12.2713 43.0609 13.633 42.2737C17.8154 39.8581 19.2752 34.5145 16.9272 30.3091L26.3035 24.8883C27.1818 27.0572 28.9053 28.7494 31.106 29.5859V37.1407V37.5752C31.106 37.9888 31.0832 38.2919 31.0536 38.5107C29.3845 36.0936 27.8475 34.3074 24.8938 34.8214C23.9253 34.9925 23.1923 35.551 22.8829 36.3541C22.5673 37.1728 22.7485 38.1132 23.3798 38.9383L30.2743 49.061C31.5936 51.0016 31.8162 52.1837 31.8162 54.0996C31.8162 55.1475 32.6697 56 33.7187 56H46.6426C47.6918 56 48.5452 55.1475 48.5452 54.0996V50.7538C48.5452 49.5371 48.7991 49.0425 49.1505 48.3582C49.5249 47.629 49.9909 46.7215 50.1901 44.8699C50.1932 44.8407 50.1948 44.8115 50.1948 44.7822V41.9732C50.1948 41.5202 49.8276 41.1529 49.3745 41.1529C48.9214 41.1529 48.5542 41.5202 48.5542 41.9732V44.7374C48.3856 46.2559 48.0325 46.9436 47.691 47.6087C47.3044 48.3618 46.9046 49.1404 46.9046 50.7537V54.0995C46.9046 54.2404 46.7846 54.3593 46.6426 54.3593H33.7186C33.5766 54.3593 33.4567 54.2403 33.4567 54.0995C33.4567 51.9271 33.1743 50.4086 31.6307 48.1379L24.7223 37.9948C24.7126 37.9808 24.7026 37.9669 24.6922 37.9535C24.4087 37.5884 24.3072 37.2204 24.4137 36.9439C24.5115 36.6904 24.7904 36.5055 25.177 36.4372C27.0709 36.1074 28.085 37.0862 29.7804 39.5543C29.7919 39.5711 29.8043 39.5875 29.8169 39.6035C30.4358 40.3739 31.0551 40.6571 31.6573 40.4452C32.4108 40.1801 32.7467 39.2949 32.7467 37.5751V37.1406V21.9011C32.7467 20.8021 33.4798 20.4122 34.1076 20.4122C34.7355 20.4122 35.4687 20.8021 35.4687 21.9011V36.0481C35.4687 36.5012 35.8358 36.8685 36.289 36.8685C36.7421 36.8685 37.1093 36.5012 37.1093 36.0481V29.4837C37.1093 28.3847 37.8425 27.9947 38.4704 27.9947C38.6216 27.9947 38.7789 28.018 38.9306 28.0678C38.9552 28.0783 38.9802 28.0876 39.0054 28.0956C39.4519 28.2712 39.8314 28.6934 39.8314 29.4837V37.1437C39.8314 37.5968 40.1986 37.9641 40.6517 37.9641C41.1049 37.9641 41.472 37.5968 41.472 37.1437V31.3428C41.472 30.2438 42.2052 29.8539 42.8331 29.8539C43.4609 29.8539 44.1941 30.2438 44.1941 31.3428V38.2394C44.1941 38.6924 44.5612 39.0597 45.0144 39.0597C45.4675 39.0597 45.8347 38.6924 45.8347 38.2394V33.202C45.8347 32.1021 46.5666 31.7119 47.1935 31.7119C47.5495 31.7119 47.8909 31.8411 48.1301 32.0665C48.4112 32.3311 48.5538 32.7132 48.5538 33.2019V38.1834C48.5538 38.6364 48.9209 39.0037 49.3741 39.0037C49.8272 39.0037 50.1944 38.6364 50.1944 38.1834V33.2019C50.1944 31.1465 48.6847 30.0711 47.1933 30.0711C46.6865 30.0711 46.1778 30.1958 45.7267 30.4407C45.3564 28.9748 44.0883 28.2132 42.8329 28.2132C42.3254 28.2132 41.8159 28.3379 41.3643 28.583C41.215 27.991 40.9195 27.5139 40.5374 27.1554C41.6567 25.833 42.3299 24.2176 42.4939 22.529H46.9732C47.351 24.2829 48.9134 25.6017 50.7787 25.6017C52.9236 25.6017 54.6687 23.8553 54.6687 21.7086C54.669 19.5603 52.9239 17.8125 50.779 17.8125ZM47.3713 4.03878C47.3714 4.03867 47.3716 4.03845 47.3717 4.03834C48.1016 3.30783 49.0727 2.90544 50.1061 2.90544C51.1395 2.90544 52.1106 3.30783 52.8409 4.03878C53.5722 4.76952 53.9749 5.74175 53.9749 6.77644C53.9749 7.81113 53.5721 8.78347 52.8399 9.51508C52.1102 10.2468 51.1393 10.6498 50.1061 10.6498C49.073 10.6498 48.102 10.2469 47.3713 9.5142C46.64 8.78347 46.2373 7.81123 46.2373 6.77655C46.2373 5.74186 46.64 4.76941 47.3713 4.03878ZM12.8123 40.8531C12.8121 40.8532 12.812 40.8532 12.8119 40.8533C11.1476 41.8157 9.20894 42.0714 7.35339 41.5737C5.49752 41.076 3.94713 39.8843 2.98725 38.2173C1.00374 34.7802 2.1851 30.3676 5.62067 28.3811C6.72875 27.7405 7.95857 27.4131 9.205 27.4131C9.8291 27.4131 10.4575 27.4952 11.0765 27.6612C12.9334 28.1588 14.4849 29.3506 15.4453 31.0171C17.4301 34.4564 16.2489 38.8687 12.8123 40.8531ZM40.8926 21.7215C40.8913 23.4473 40.2304 25.1239 39.0112 26.4017C38.8325 26.3702 38.6514 26.3541 38.4705 26.3541C38.0029 26.3541 37.5335 26.4599 37.1094 26.6681V21.9011C37.1094 19.8465 35.5994 18.7716 34.1077 18.7716C32.6161 18.7716 31.1061 19.8465 31.1061 21.9011V27.7992C29.3635 26.9439 28.0688 25.3857 27.553 23.4645C26.5858 19.8461 28.7388 16.1154 32.3532 15.148C34.1012 14.6786 35.9278 14.9184 37.4963 15.8242C39.0674 16.7312 40.1908 18.1963 40.6597 19.9503C40.8143 20.5263 40.8908 21.11 40.8931 21.6886C40.893 21.6953 40.8921 21.7019 40.8921 21.7086C40.892 21.713 40.8926 21.7172 40.8926 21.7215ZM50.779 23.9611C49.5369 23.9611 48.5264 22.9507 48.5264 21.7086C48.5264 20.4649 49.5368 19.4531 50.779 19.4531C52.0194 19.4531 53.0284 20.4649 53.0284 21.7086C53.0284 22.9506 52.0194 23.9611 50.779 23.9611Z" fill="#00171F"/>
<path id="Vector_6" d="M10.2916 30.6017C9.22031 30.3143 8.10042 30.4617 7.13737 31.0175C5.15429 32.1644 4.47322 34.7123 5.61903 36.6971C6.174 37.6586 7.06978 38.3462 8.14122 38.6332C8.49876 38.7289 8.86145 38.7764 9.22206 38.7764C9.94229 38.7764 10.6536 38.5872 11.2946 38.2172C11.2947 38.2171 11.2949 38.217 11.2952 38.2169C13.2775 37.0705 13.9587 34.524 12.8139 32.541C12.259 31.5779 11.3633 30.8893 10.2916 30.6017ZM10.4737 36.7967C9.89154 37.1327 9.21386 37.2222 8.56581 37.0484C7.91765 36.8749 7.37581 36.4587 7.03992 35.8769C6.34604 34.6749 6.75828 33.1321 7.95823 32.4381C8.3464 32.214 8.77668 32.0996 9.21243 32.0996C9.43064 32.0996 9.65026 32.1282 9.86639 32.1863C10.5144 32.3602 11.0564 32.777 11.3926 33.3606C12.0857 34.5614 11.6736 36.1028 10.4737 36.7967Z" fill="#00171F"/>
</g>
</g>
<defs>
<clipPath id="clip0_13_13806">
<rect width="56" height="56" fill="white"/>
</clipPath>
</defs>
</svg>
