<svg width="56" height="56" viewBox="0 0 56 56" fill="none" xmlns="http://www.w3.org/2000/svg">
<g id="Capa_1" clip-path="url(#clip0_25_3161)">
<g id="Group">
<path id="Vector" d="M47.799 8.20094C42.5105 2.91255 35.4791 0 28 0C23.8907 0 19.9313 0.870078 16.2317 2.58606C15.8207 2.7767 15.6421 3.26441 15.8327 3.67544C16.0233 4.08636 16.5108 4.26497 16.922 4.07433C20.4037 2.45941 24.1309 1.64062 28 1.64062C42.5346 1.64062 54.3594 13.4654 54.3594 28C54.3594 34.491 51.9792 40.7279 47.6572 45.5619C47.3552 45.8997 47.3842 46.4182 47.722 46.7202C48.0585 47.0215 48.5774 46.994 48.8802 46.6554C53.4715 41.5202 56 34.8949 56 28C56 20.5209 53.0876 13.4894 47.799 8.20094Z" fill="#00171F"/>
<path id="Vector_2" d="M44.9943 48.1505C40.2519 52.1544 34.2164 54.3594 28 54.3594C13.4654 54.3594 1.64062 42.5346 1.64062 28C1.64062 19.0301 6.13944 10.757 13.675 5.86894C14.0551 5.62241 14.1634 5.11447 13.9168 4.73439C13.6703 4.3542 13.1622 4.24603 12.7821 4.49256C4.77837 9.68427 0 18.4721 0 28C0 35.479 2.91244 42.5105 8.20105 47.799C13.4895 53.0874 20.5209 56 28 56C34.6034 56 41.0146 53.6575 46.0527 49.404C46.3988 49.1118 46.4425 48.5943 46.1503 48.2481C45.858 47.902 45.3405 47.8583 44.9943 48.1505Z" fill="#00171F"/>
<path id="Vector_3" d="M3.82812 28C3.82812 34.4565 6.34244 40.5266 10.9079 45.0921C15.4734 49.6576 21.5435 52.1719 28 52.1719C34.4565 52.1719 40.5266 49.6576 45.0921 45.0921C49.6576 40.5266 52.1719 34.4565 52.1719 28C52.1719 14.6717 41.3284 3.82812 28 3.82812C14.6716 3.82812 3.82812 14.6717 3.82812 28ZM28 5.46875C40.4238 5.46875 50.5312 15.5762 50.5312 28C50.5312 34.0182 48.1876 39.6764 43.932 43.932C39.6763 48.1876 34.0182 50.5312 28 50.5312C21.9818 50.5312 16.3237 48.1876 12.068 43.932C7.81244 39.6764 5.46875 34.0182 5.46875 28C5.46875 15.5762 15.5762 5.46875 28 5.46875Z" fill="#00171F"/>
<path id="Vector_4" d="M18.9219 37.3754C17.2633 37.3754 15.9141 38.7248 15.9141 40.3832C15.9141 42.0417 17.2633 43.391 18.9219 43.391H21.2734V45.6094C21.2734 46.9663 22.3774 48.0703 23.7344 48.0703C25.0914 48.0703 26.1953 46.9663 26.1953 45.6094V43.3922L27.6172 43.3942V45.5C27.6172 46.8569 28.7211 47.9609 30.0781 47.9609C31.4351 47.9609 32.5391 46.8569 32.5391 45.5V43.2687C37.4232 42.8031 41.2715 38.6547 41.2715 33.6655C41.2715 30.7059 39.9221 27.9425 37.6228 26.1157C38.5067 24.7822 38.9975 23.2484 39.0513 21.6328C39.0662 21.18 38.7114 20.8008 38.2586 20.7857C37.8032 20.7674 37.4266 21.1256 37.4115 21.5784C37.3602 23.1222 36.816 24.5743 35.8375 25.7773C35.5319 26.1364 35.6229 26.7284 36.0219 26.9794C38.2817 28.4717 39.6308 30.9713 39.6308 33.6656C39.6308 38.0332 36.0776 41.6244 31.7099 41.6711C31.2604 41.676 30.8984 42.0419 30.8984 42.4914V45.5C30.8984 45.9524 30.5304 46.3203 30.0781 46.3203C29.6257 46.3203 29.2578 45.9524 29.2578 45.5V42.575C29.2578 42.1224 28.8912 41.7553 28.4386 41.7547L25.3761 41.7504C24.9351 41.7411 24.5459 42.1296 24.5547 42.5707V45.6094C24.5547 46.0617 24.1866 46.4297 23.7344 46.4297C23.282 46.4297 22.9141 46.0617 22.9141 45.6094V42.5707C22.9141 42.1176 22.5468 41.7504 22.0938 41.7504H18.9219C18.168 41.7504 17.5547 41.1371 17.5547 40.3832C17.5547 39.6293 18.168 39.016 18.9219 39.016H21.0176C21.4706 39.016 21.8379 38.6489 21.8379 38.1957V17.8519C21.8379 17.3987 21.4706 17.0315 21.0176 17.0315H18.9219C18.168 17.0315 17.5547 16.4183 17.5547 15.6644C17.5547 14.9104 18.168 14.2972 18.9219 14.2972H22.0938C22.5468 14.2972 22.9141 13.93 22.9141 13.4769V10.6094C22.9141 10.157 23.282 9.78906 23.7344 9.78906C24.1866 9.78906 24.5547 10.157 24.5547 10.6094V13.4769C24.5547 13.93 24.922 14.2972 25.375 14.2972H28.4375C28.8905 14.2972 29.2578 13.93 29.2578 13.4769V10.5C29.2578 10.0476 29.6257 9.67969 30.0781 9.67969C30.5304 9.67969 30.8984 10.0476 30.8984 10.5V13.5948C30.8984 13.9937 31.1855 14.3349 31.5785 14.403C33.7765 14.7842 35.6849 16.21 36.6835 18.2172C36.8853 18.6228 37.3778 18.7882 37.7834 18.5862C38.1889 18.3843 38.3542 17.8919 38.1524 17.4863C37.0263 15.2229 34.9596 13.5592 32.5391 12.9332V10.5C32.5391 9.14309 31.4351 8.03906 30.0781 8.03906C28.7211 8.03906 27.6172 9.14309 27.6172 10.5V12.6565H26.1953V10.6094C26.1953 9.25247 25.0914 8.14844 23.7344 8.14844C22.3774 8.14844 21.2734 9.25247 21.2734 10.6094V12.6565H18.9219C17.2633 12.6565 15.9141 14.0059 15.9141 15.6644C15.9141 17.3229 17.2633 18.6722 18.9219 18.6722H20.1973V37.3754H18.9219Z" fill="#FFA85C"/>
<path id="Vector_5" d="M25.3926 25.6576H25.3938C25.3938 25.6576 29.8479 25.6509 30.3715 25.6509C32.7479 25.6509 34.6812 23.7176 34.6812 21.3412C34.6812 18.9648 32.7479 17.0315 30.3715 17.0315H25.3926C24.9396 17.0315 24.5723 17.3987 24.5723 17.8518V24.8373C24.5635 25.2779 24.9519 25.6663 25.3926 25.6576ZM26.2129 18.6721H30.3715C31.8432 18.6721 33.0405 19.8694 33.0405 21.3412C33.0405 22.8129 31.8432 24.0103 30.3715 24.0103C29.9903 24.0103 27.5262 24.0138 26.2129 24.0157V18.6721Z" fill="#FFA85C"/>
<path id="Vector_6" d="M31.6231 37.2986C31.1303 37.2472 30.6762 37.6121 30.6797 38.1189C30.6762 38.6258 31.1303 38.9906 31.6231 38.9392C34.5309 38.9392 36.8966 36.5734 36.8966 33.6656C36.8966 30.7578 34.5309 28.3921 31.6222 28.3921C31.5673 28.3922 26.1239 28.3982 25.3892 28.4013C24.9375 28.4032 24.5723 28.7699 24.5723 29.2216V38.1388C24.5636 38.5807 24.9541 38.9696 25.3959 38.9591L27.6749 38.9503C28.128 38.9485 28.4939 38.58 28.4923 38.127C28.4907 37.675 28.1237 37.3097 27.672 37.3097C27.671 37.3097 27.6699 37.3097 27.6689 37.3097L26.2129 37.3153V30.0399C27.9444 30.0368 31.579 30.0327 31.6231 30.0327C33.6263 30.0327 35.2559 31.6624 35.2559 33.6656C35.2558 35.6688 33.6261 37.2986 31.6231 37.2986Z" fill="#00171F"/>
</g>
</g>
<defs>
<clipPath id="clip0_25_3161">
<rect width="56" height="56" fill="white"/>
</clipPath>
</defs>
</svg>
