<svg width="56" height="56" viewBox="0 0 56 56" fill="none" xmlns="http://www.w3.org/2000/svg">
<g id="Layer_1">
<g id="Group">
<g id="Group_2">
<path id="Vector" d="M55.1797 32.7092C55.6328 32.7092 56 32.342 56 31.8889V6.5625C56 5.26586 54.9451 4.21094 53.6484 4.21094H47.4141V3.60938C47.4141 2.91583 46.8498 2.35156 46.1562 2.35156H17.1963C16.1101 2.38919 16.1109 3.95489 17.1963 3.99219H45.7734V28.6016H10.2266V3.99219H13.3559C14.4421 3.95456 14.4412 2.38886 13.3559 2.35156H9.84375C9.1502 2.35156 8.58594 2.91583 8.58594 3.60938V4.21094H2.35156C1.05492 4.21094 0 5.26586 0 6.5625V41.5625C0 42.8591 1.05492 43.9141 2.35156 43.9141H17.8828V48.7266H16.7344C14.9552 48.7266 13.5078 50.174 13.5078 51.9531V52.3107C13.5078 53.0483 14.1078 53.6484 14.8455 53.6484H41.1545C41.8922 53.6484 42.4922 53.0483 42.4922 52.3107V51.9531C42.4922 50.174 41.0448 48.7266 39.2656 48.7266H38.1172V43.9141H53.6484C54.9451 43.9141 56 42.8591 56 41.5625V35.7778C55.9624 34.6916 54.3967 34.6924 54.3594 35.7778V41.5625C54.3594 41.9545 54.0404 42.2734 53.6484 42.2734H2.35156C1.95956 42.2734 1.64062 41.9545 1.64062 41.5625V6.5625C1.64062 6.1705 1.95956 5.85156 2.35156 5.85156H8.58594V7.49219H4.53906C3.84552 7.49219 3.28125 8.05645 3.28125 8.75V35.6562C3.28125 36.3498 3.84552 36.9141 4.53906 36.9141H51.4609C52.1545 36.9141 52.7188 36.3498 52.7188 35.6562V8.75C52.7188 8.05645 52.1545 7.49219 51.4609 7.49219H47.4141V5.85156H53.6484C54.0404 5.85156 54.3594 6.1705 54.3594 6.5625V31.8889C54.3594 32.342 54.7265 32.7092 55.1797 32.7092ZM40.8516 51.9531V52.0078H15.1484V51.9531C15.1484 51.0787 15.8599 50.3672 16.7344 50.3672H39.2656C40.1401 50.3672 40.8516 51.0787 40.8516 51.9531ZM30.3198 43.9141C29.5443 46.0885 26.455 46.0872 25.6802 43.9141H30.3198ZM23.9808 43.9141C24.9317 48.2624 31.07 48.2593 32.0192 43.9141H36.4766V48.7266H19.5234V43.9141H23.9808ZM51.0781 9.13281V35.2734H4.92188V9.13281H8.58594V28.9844C8.58594 29.6779 9.1502 30.2422 9.84375 30.2422H46.1562C46.8498 30.2422 47.4141 29.6779 47.4141 28.9844V9.13281H51.0781Z" fill="#00171F"/>
<path id="Vector_2" d="M13.1161 15.8776V18.0842C13.1161 19.1826 14.0096 20.076 15.108 20.076H23.7024C24.8008 20.076 25.6943 19.1826 25.6943 18.0842V15.8776C25.6943 14.3215 24.6273 13.0101 23.1866 12.6361C23.3927 12.147 23.5068 11.61 23.5068 11.0468V9.7401C23.2999 4.30493 15.5085 4.30909 15.3036 9.7401V11.0585C15.3036 11.6177 15.4166 12.1511 15.6204 12.6371C14.1815 13.0123 13.1161 14.3227 13.1161 15.8776ZM24.0536 15.8776V18.0842C24.0536 18.2779 23.8961 18.4354 23.7024 18.4354H15.108C14.9143 18.4354 14.7568 18.2779 14.7568 18.0842V15.8776C14.7568 14.936 15.5228 14.1698 16.4644 14.1698H16.7402C18.1836 15.4709 20.619 15.4683 22.0627 14.1698H22.3459C23.2876 14.1698 24.0536 14.936 24.0536 15.8776ZM16.9443 9.7401C17.0684 6.47898 21.7432 6.48149 21.8661 9.7401V11.0468C21.745 14.3047 17.07 14.3203 16.9443 11.0585V9.7401Z" fill="#FFA85C"/>
<path id="Vector_3" d="M14.8302 21.3281C13.885 21.3281 13.1161 22.097 13.1161 23.0421V24.536C13.1161 25.4811 13.885 26.25 14.8302 26.25H23.9803C24.9254 26.25 25.6943 25.4811 25.6943 24.536V23.0421C25.6943 22.097 24.9254 21.3281 23.9803 21.3281H14.8302ZM24.0536 23.0421V24.536C24.0536 24.5765 24.0207 24.6094 23.9803 24.6094H14.8302C14.7897 24.6094 14.7568 24.5765 14.7568 24.536V23.0421C14.7568 23.0017 14.7897 22.9688 14.8302 22.9688H23.9803C24.0207 22.9688 24.0536 23.0017 24.0536 23.0421Z" fill="#00171F"/>
<path id="Vector_4" d="M41.9603 14.603C41.0605 9.12938 34.9001 7.19792 31.0473 10.7102C27.3751 13.9827 29.1522 20.8332 33.0408 23.0432C33.424 23.2719 33.9324 23.1486 34.1646 22.7552C34.3953 22.3654 34.2664 21.8622 33.8766 21.6315C32.0123 20.5278 30.6592 17.9897 30.6592 15.5966C30.8129 9.29585 39.3432 8.81919 40.3446 14.889C40.4236 15.3351 40.8488 15.6324 41.2953 15.5538C41.7415 15.4748 42.039 15.0492 41.9603 14.603Z" fill="#00171F"/>
<path id="Vector_5" d="M40.8836 19.3439C41.083 19.3439 41.2829 19.2716 41.4408 19.1255C41.7732 18.8177 41.7932 18.2986 41.4853 17.9662C39.8392 16.1887 38.9075 14.543 38.5832 13.918C38.0497 12.9712 36.6603 13.6928 37.127 14.6734C37.4818 15.3575 38.4996 17.1566 40.2816 19.0809C40.4433 19.2555 40.663 19.3439 40.8836 19.3439Z" fill="#FFA85C"/>
<path id="Vector_6" d="M34.5545 13.8611C34.8517 13.7065 35.1845 13.6329 35.5165 13.6475C36.6029 13.6566 36.6723 12.0947 35.5895 12.0085C34.9708 11.9814 34.3502 12.1181 33.7979 12.4054C32.9565 12.8426 32.3358 13.5813 32.0503 14.4854C31.7649 15.3893 31.8484 16.3504 32.2857 17.192C32.7894 18.1603 34.2292 20.6887 36.7122 23.2495C37.0277 23.575 37.5471 23.5826 37.8721 23.2675C38.1974 22.9521 38.2053 22.4327 37.89 22.1075C35.5577 19.7019 34.2116 17.3391 33.7413 16.4352C33.5062 15.9826 33.4611 15.4656 33.6147 14.9795C33.7682 14.4933 34.1019 14.0961 34.5545 13.8611Z" fill="#00171F"/>
<path id="Vector_7" d="M38.8293 21.4393C39.1523 21.7566 39.6717 21.7521 39.9892 21.4288C40.3067 21.1056 40.3021 20.5862 39.9787 20.2688C38.1082 18.4317 36.6711 15.9074 36.6568 15.8822C36.0898 14.9551 34.7273 15.7256 35.2283 16.6889C35.2912 16.8003 36.7897 19.4362 38.8293 21.4393Z" fill="#FFA85C"/>
<path id="Vector_8" d="M46.5938 38.7004C45.5075 38.7381 45.5084 40.3038 46.5938 40.3411H47.9207C49.0069 40.3034 49.006 38.7377 47.9207 38.7004H46.5938Z" fill="#FFA85C"/>
<path id="Vector_9" d="M42.2116 38.7004C41.1254 38.7381 41.1263 40.3038 42.2116 40.3411H43.5385C44.6247 40.3034 44.6238 38.7377 43.5385 38.7004H42.2116Z" fill="#FFA85C"/>
</g>
</g>
</g>
</svg>
