<svg width="56" height="56" viewBox="0 0 56 56" fill="none" xmlns="http://www.w3.org/2000/svg">
<g id="Frame" clip-path="url(#clip0_13_13910)">
<path id="Vector" d="M32.4842 16.6204C31.8793 16.6204 31.3887 17.1104 31.3887 17.7141C31.3887 18.3174 31.8793 18.8074 32.4842 18.8074C33.089 18.8074 33.5796 18.3174 33.5796 17.7141C33.5796 17.1104 33.089 16.6204 32.4842 16.6204Z" fill="#FFA85C"/>
<path id="Vector_2" d="M25.8403 37.9823C26.268 37.5546 26.268 36.8625 25.8403 36.4348C25.4122 36.0084 24.7187 36.0084 24.2902 36.4348C23.863 36.8625 23.863 37.5546 24.2902 37.9823C24.7187 38.4087 25.4122 38.4087 25.8403 37.9823Z" fill="#FFA85C"/>
<path id="Vector_3" d="M12.6742 55.6766C13.0989 56.1038 13.7902 56.1085 14.2205 55.6856L19.5321 50.4629C20.4345 49.5623 20.7089 48.2288 20.3121 47.0697L21.4546 45.97C22.0698 45.377 22.8797 45.0501 23.7359 45.0501H38.3005C40.8844 45.0501 43.3266 44.0598 45.1781 42.2615C45.2543 42.1876 44.5997 42.957 55.1143 30.4148C56.6738 28.5734 56.4405 25.8082 54.5938 24.2501C52.7586 22.7064 50.0094 22.9282 48.4456 24.738L41.9807 31.3697C41.1644 30.3669 39.9195 29.7419 38.5745 29.7419H26.3574C24.619 29.016 22.7744 28.6486 20.8711 28.6486C15.5972 28.6486 10.9897 31.0787 8.5167 35.64C7.47517 35.4431 6.37671 35.7575 5.58647 36.5462L0.374572 41.7633C-0.0509415 42.1893 -0.0517976 42.8784 0.37286 43.3052L12.6742 55.6766ZM20.8707 30.8352C22.5488 30.8352 24.1712 31.1723 25.6939 31.8371C25.8326 31.8978 25.982 31.929 26.1331 31.929H38.5745C39.7624 31.929 40.7658 32.8958 40.7658 34.1156C40.7658 35.3217 39.783 36.3027 38.5745 36.3027H29.6357C29.0308 36.3027 28.5402 36.7923 28.5402 37.396C28.5402 38.0001 29.0308 38.4893 29.6357 38.4893H38.5745C40.991 38.4893 42.9568 36.5274 42.9568 34.1156C42.9568 33.9233 42.9431 33.7328 42.9182 33.5439C49.1721 27.128 50.0539 26.2265 50.0916 26.1816C50.8724 25.2618 52.2586 25.1451 53.1806 25.921C54.1036 26.6999 54.2205 28.0825 53.4375 29.0074L43.6109 40.7319C42.1759 42.1068 40.292 42.8635 38.3005 42.8635H23.7359C22.3086 42.8635 20.9576 43.4082 19.9328 44.3964L19.0017 45.2932L10.4187 36.7274C12.4247 32.9714 16.1888 30.8352 20.8707 30.8352ZM7.13699 38.0915C7.49829 37.731 8.05308 37.666 8.49358 37.9377C8.66096 38.0394 18.0317 47.4149 18.0895 47.4922C18.4101 47.9233 18.3643 48.5356 17.9889 48.9107L13.4606 53.363L2.69563 42.537L7.13699 38.0915Z" fill="#00171F"/>
<path id="Vector_4" d="M17.146 23.1811H43.4401C45.2526 23.1811 46.7269 21.7097 46.7269 19.9007C46.7269 17.1445 46.7269 5.26239 46.7269 3.2804C46.7269 1.47144 45.2526 0 43.4401 0H17.146C15.3335 0 13.8592 1.47144 13.8592 3.2804V19.9007C13.8592 21.7097 15.3335 23.1811 17.146 23.1811ZM44.5355 8.74744H16.0505V6.56079H44.5355V8.74744ZM43.4401 20.9945H17.146C16.542 20.9945 16.0505 20.5035 16.0505 19.9007V10.9345H44.5355V19.9007C44.5355 20.5035 44.0441 20.9945 43.4401 20.9945ZM17.146 2.18707H43.4401C44.0441 2.18707 44.5355 2.67755 44.5355 3.2804V4.37372H16.0505V3.2804C16.0505 2.67755 16.542 2.18707 17.146 2.18707Z" fill="#00171F"/>
<path id="Vector_5" d="M41.2487 16.6204H36.8664C36.2616 16.6204 35.771 17.11 35.771 17.7141C35.771 18.3178 36.2616 18.8074 36.8664 18.8074H41.2487C41.854 18.8074 42.3446 18.3178 42.3446 17.7141C42.3446 17.11 41.854 16.6204 41.2487 16.6204Z" fill="#FFA85C"/>
</g>
<defs>
<clipPath id="clip0_13_13910">
<rect width="56" height="56" fill="white"/>
</clipPath>
</defs>
</svg>
