<svg width="56" height="56" viewBox="0 0 56 56" fill="none" xmlns="http://www.w3.org/2000/svg">
<g id="Capa_1">
<path id="Vector" d="M50.3406 37.7278V36.1188C50.3406 32.5466 49.0693 29.0767 46.7609 26.3482C46.4684 26.0026 45.9508 25.9591 45.6048 26.2519C45.2589 26.5445 45.2157 27.062 45.5084 27.4078C47.5665 29.8404 48.7 32.934 48.7 36.1188V37.7278C48.7 42.3918 46.332 46.6691 42.3654 49.1697C42.1271 49.32 41.9826 49.5821 41.9826 49.8637V54.3593H36.7936L36.4382 51.9544C36.377 51.5407 36.0134 51.2436 35.5962 51.2547C35.4094 51.2615 35.2439 51.265 35.0905 51.265H32.8125C32.3595 51.265 31.9922 51.6322 31.9922 52.0854C31.9922 52.5385 32.3595 52.9057 32.8125 52.9057H34.9203L35.1352 54.3593H28.0797L28.2945 52.9056H28.9844C29.4374 52.9056 29.8047 52.5384 29.8047 52.0852C29.8047 51.6321 29.4374 51.2649 28.9844 51.2649H27.5866C27.1798 51.2649 26.8346 51.563 26.7751 51.9653L26.4212 54.3593H21.2322V51.295C21.2322 50.9451 21.0103 50.6337 20.6794 50.5195C17.428 49.3977 14.7441 47.1129 13.1218 44.0861C12.979 43.8196 12.7012 43.6533 12.3989 43.6533H7.30002V35.7631H10.7583C11.1856 35.7631 11.5413 35.4352 11.5759 35.0094C11.974 30.1252 15.0128 25.8269 19.5064 23.792C19.7998 23.6591 19.9883 23.3669 19.9883 23.0448V16.7116C20.4961 16.8829 21.6945 17.3524 22.9029 18.3005C23.5522 18.8098 24.1038 19.3811 24.5571 20.0089C24.5482 20.1505 24.5422 20.2929 24.5422 20.4366C24.5422 22.2391 25.2464 23.9113 26.447 25.1494H25.8856C25.4325 25.1494 25.0653 25.5165 25.0653 25.9697C25.0653 26.4228 25.4325 26.79 25.8856 26.79H29.1083H33.6177H37.2049C37.6579 26.79 38.0252 26.4228 38.0252 25.9697C38.0252 25.5165 37.6579 25.1494 37.2049 25.1494H36.279C36.92 24.4884 37.4189 23.7037 37.7452 22.8414C39.5597 23.1973 41.2828 23.9174 42.8241 24.9782C43.1973 25.235 43.7081 25.1406 43.9649 24.7674C44.2217 24.3942 44.1275 23.8834 43.7543 23.6265C42.0473 22.4517 40.1419 21.6488 38.1357 21.245C38.1672 20.9792 38.1839 20.7095 38.1839 20.4366C38.1839 18.4248 37.2997 16.6154 35.899 15.3708V13.9397C35.899 13.4866 35.5317 13.1194 35.0786 13.1194C34.6256 13.1194 34.2583 13.4866 34.2583 13.9397V14.2899C33.6354 13.998 32.9614 13.7981 32.2535 13.7058V11.0132C32.2535 10.56 31.8862 10.1929 31.4332 10.1929C30.9801 10.1929 30.6129 10.56 30.6129 11.0132V13.6881C29.8536 13.7712 29.1317 13.9789 28.4678 14.2901V13.3844C28.4678 12.9313 28.1005 12.5641 27.6475 12.5641C27.1945 12.5641 26.8272 12.9313 26.8272 13.3844V15.371C26.026 16.0828 25.395 16.9796 25.0008 17.9934C24.6665 17.644 24.3046 17.3149 23.9156 17.0099C22.1283 15.6077 20.3615 15.1028 20.1642 15.0494C19.7407 14.936 19.2658 15.0282 18.9142 15.2959C18.5594 15.5664 18.3477 15.9939 18.3477 16.4395V22.526C13.8041 24.7769 10.6819 29.1333 10.0213 34.1225H7.10172C6.30646 34.1225 5.65939 34.768 5.65939 35.5616V43.8547C5.65939 44.6483 6.30646 45.2938 7.10172 45.2938H11.9168C13.6556 48.3015 16.351 50.6097 19.5916 51.8677V54.3593H6.47971C6.02667 54.3593 5.65939 54.7264 5.65939 55.1796C5.65939 55.6327 6.02667 55.9999 6.47971 55.9999H20.4119H27.1293H36.0857H42.803H49.5204C49.9734 55.9999 50.3407 55.6327 50.3407 55.1796C50.3407 54.7264 49.9734 54.3593 49.5204 54.3593H43.6233V50.3084C47.8382 47.4757 50.3406 42.8066 50.3406 37.7278ZM31.3631 15.2868C34.2194 15.2868 36.5433 17.5971 36.5433 20.4368C36.5433 22.4918 35.3352 24.325 33.4525 25.1496H29.2737C27.3909 24.3251 26.1828 22.4918 26.1828 20.4368C26.1828 17.5971 28.5067 15.2868 31.3631 15.2868Z" fill="#00171F"/>
<path id="Vector_2" d="M14.7552 33.5845V37.8544C14.7552 38.3075 15.1225 38.6747 15.5755 38.6747C16.0286 38.6747 16.3959 38.3075 16.3959 37.8544V33.5845C16.3959 33.1313 16.0286 32.7642 15.5755 32.7642C15.1225 32.7642 14.7552 33.1313 14.7552 33.5845Z" fill="#FFA85C"/>
<path id="Vector_3" d="M31.3631 24.0987C33.3901 24.0987 35.0393 22.456 35.0393 20.4369C35.0393 18.4179 33.3901 16.7751 31.3631 16.7751C29.336 16.7751 27.6869 18.4179 27.6869 20.4369C27.6869 22.456 29.336 24.0987 31.3631 24.0987ZM31.3631 18.4159C32.4855 18.4159 33.3986 19.3225 33.3986 20.437C33.3986 21.5516 32.4855 22.4582 31.3631 22.4582C30.2407 22.4582 29.3275 21.5516 29.3275 20.437C29.3275 19.3225 30.2407 18.4159 31.3631 18.4159Z" fill="#FFA85C"/>
<path id="Vector_4" d="M21.2826 13.6416C24.11 13.6416 26.6033 11.941 27.635 9.30923C27.8003 8.88748 27.5925 8.41148 27.1706 8.24611C26.7489 8.08041 26.2729 8.28866 26.1075 8.71041C25.3239 10.7093 23.4301 12.001 21.2826 12.001C18.4263 12.001 16.1024 9.67717 16.1024 6.82084C16.1024 3.96452 18.4263 1.64062 21.2826 1.64062C23.5932 1.64062 25.644 3.192 26.2695 5.41308C26.3923 5.84916 26.8451 6.10302 27.2814 5.9803C27.7175 5.85758 27.9715 5.40444 27.8486 4.96836C27.0248 2.04312 24.3248 0 21.2826 0C17.5217 0 14.4618 3.05988 14.4618 6.82073C14.4618 10.5816 17.5217 13.6416 21.2826 13.6416Z" fill="#00171F"/>
<path id="Vector_5" d="M21.2826 3.14478C19.2556 3.14478 17.6064 4.79382 17.6064 6.82076C17.6064 8.8477 19.2556 10.4967 21.2826 10.4967C23.3097 10.4967 24.9588 8.8477 24.9588 6.82076C24.9588 4.79382 23.3098 3.14478 21.2826 3.14478ZM21.2826 8.85623C20.1602 8.85623 19.247 7.94317 19.247 6.82087C19.247 5.69857 20.1602 4.78551 21.2826 4.78551C22.405 4.78551 23.3182 5.69857 23.3182 6.82087C23.3182 7.94317 22.4051 8.85623 21.2826 8.85623Z" fill="#FFA85C"/>
<path id="Vector_6" d="M10.8283 20.7345C12.8554 20.7345 14.5045 19.0854 14.5045 17.0584C14.5045 15.0312 12.8554 13.3821 10.8283 13.3821C8.80129 13.3821 7.15214 15.0312 7.15214 17.0584C7.15214 19.0854 8.80129 20.7345 10.8283 20.7345ZM10.8283 15.0227C11.9507 15.0227 12.8639 15.936 12.8639 17.0584C12.8639 18.1808 11.9507 19.0939 10.8283 19.0939C9.70593 19.0939 8.79276 18.1807 8.79276 17.0584C8.79276 15.9359 9.70593 15.0227 10.8283 15.0227Z" fill="#FFA85C"/>
<path id="Vector_7" d="M43.171 17.0216C45.198 17.0216 46.8472 15.3724 46.8472 13.3454C46.8472 11.3183 45.198 9.66919 43.171 9.66919C41.1439 9.66919 39.4948 11.3183 39.4948 13.3454C39.4948 15.3724 41.1439 17.0216 43.171 17.0216ZM43.171 11.3097C44.2934 11.3097 45.2065 12.2229 45.2065 13.3453C45.2065 14.4677 44.2934 15.3809 43.171 15.3809C42.0486 15.3809 41.1354 14.4677 41.1354 13.3453C41.1354 12.2229 42.0486 11.3097 43.171 11.3097Z" fill="#FFA85C"/>
<path id="Vector_8" d="M31.4333 8.51147C31.8863 8.51147 32.2536 8.14421 32.2536 7.69116C32.2536 7.23812 31.8863 6.87085 31.4333 6.87085C30.9802 6.87085 30.613 7.23812 30.613 7.69116C30.613 8.14421 30.9802 8.51147 31.4333 8.51147Z" fill="#00171F"/>
<path id="Vector_9" d="M35.0788 11.5664C35.5318 11.5664 35.8991 11.1991 35.8991 10.7461C35.8991 10.293 35.5318 9.92578 35.0788 9.92578C34.6257 9.92578 34.2584 10.293 34.2584 10.7461C34.2584 11.1991 34.6257 11.5664 35.0788 11.5664Z" fill="#00171F"/>
</g>
</svg>
