<svg width="56" height="56" viewBox="0 0 56 56" fill="none" xmlns="http://www.w3.org/2000/svg">
<g id="Layer_1">
<g id="Group">
<g id="Group_2">
<path id="Vector" d="M49.4069 25.9503C47.5013 24.9976 43.9286 24.9866 43.7775 24.9866C43.3244 24.9866 42.9571 25.3539 42.9571 25.8069C42.9571 26.2599 43.3244 26.6272 43.7775 26.6272C44.6994 26.6273 47.3761 26.7693 48.6732 27.4178C48.791 27.4767 48.9161 27.5045 49.0394 27.5045C49.3403 27.5045 49.63 27.3382 49.7737 27.0509C49.9764 26.6457 49.8121 26.1529 49.4069 25.9503Z" fill="#FFA85C"/>
</g>
</g>
<g id="Group_3">
<g id="Group_4">
<path id="Vector_2" d="M53.4966 37.6296L50.1087 36.6616C49.9625 36.6198 49.8603 36.4844 49.8603 36.3323V35.2015C50.136 35.0105 50.3989 34.7968 50.6447 34.5582C51.8358 33.4024 52.4917 31.852 52.4917 30.1925V28.6321L52.8193 27.977C53.1788 27.2579 53.3688 26.4528 53.3688 25.6489V21.4215C53.3688 20.9685 53.0015 20.6012 52.5485 20.6012H44.6545C41.7841 20.6012 39.4487 22.9366 39.4487 25.807V25.8559C39.4487 26.5244 39.6068 27.1939 39.9057 27.7917L40.3258 28.632V29.9718C40.3258 32.0952 41.3722 34.0004 42.9571 35.1469L42.9574 36.3321C42.9574 36.5148 42.9574 36.5905 42.28 36.7841L40.6269 37.2564L35.8449 35.5176C35.8621 35.2919 35.786 35.0625 35.6214 34.8895L34.0933 33.2841V30.5891C34.2548 30.456 34.4141 30.3193 34.5684 30.1747C36.4961 28.3678 37.6017 25.8168 37.6017 23.1757V21.0234C38.1838 19.7567 38.4788 18.4163 38.4788 17.0359V8.26514C38.4788 7.81211 38.1115 7.44482 37.6585 7.44482H25.379C21.0576 7.44482 17.542 10.9606 17.542 15.2819V17.0361C17.542 18.4166 17.837 19.7569 18.4191 21.0236V22.8754C18.4191 25.9419 19.7825 28.7045 21.9275 30.5258V33.2842L20.3994 34.8896C20.2348 35.0626 20.1587 35.292 20.1759 35.5177L15.1288 37.3529C14.763 37.4859 14.4232 37.666 14.1146 37.8842L13.3221 37.4879C15.6813 36.461 16.4287 35.0167 16.4645 34.945C16.58 34.7141 16.58 34.4422 16.4645 34.2113C15.8732 33.0285 15.8015 30.8606 15.744 29.1187C15.7248 28.5388 15.7067 27.9909 15.672 27.5031C15.3923 23.5684 12.4012 20.6012 8.71412 20.6012C5.02709 20.6012 2.0358 23.5683 1.75623 27.5031C1.72156 27.991 1.70341 28.5389 1.68427 29.1189C1.62673 30.8607 1.55498 33.0284 0.963703 34.2112C0.848203 34.4421 0.848203 34.714 0.963703 34.9449C0.999578 35.0166 1.74541 36.458 4.10933 37.4861L1.90794 38.5867C0.731063 39.1756 0 40.3585 0 41.6742V47.7345C0 48.1876 0.367281 48.5548 0.820312 48.5548C1.27334 48.5548 1.64062 48.1876 1.64062 47.7345V41.6742C1.64062 40.9838 2.0242 40.3631 2.64162 40.0543L5.38289 38.6837L6.33642 39.5899C7.00317 40.2235 7.85848 40.5402 8.71412 40.5402C9.56955 40.5402 10.4253 40.2233 11.0918 39.5899L12.0452 38.6839L12.9391 39.1308C12.5182 39.8042 12.2793 40.5939 12.2793 41.4211V47.7347C12.2793 48.1878 12.6466 48.5551 13.0996 48.5551C13.5527 48.5551 13.9199 48.1878 13.9199 47.7347V41.4211C13.9199 40.2949 14.631 39.2797 15.6894 38.8948L21.0107 36.9599L23.2259 40.2828C23.5091 40.7076 23.9629 40.9801 24.4709 41.0304C24.5276 41.036 24.5839 41.0387 24.6401 41.0387C25.0883 41.0387 25.5176 40.8623 25.8385 40.5415L27.19 39.19V47.7349C27.19 48.1879 27.5572 48.5552 28.0103 48.5552C28.4633 48.5552 28.8306 48.1879 28.8306 47.7349V39.19L30.182 40.5415C30.5028 40.8624 30.9321 41.0388 31.3805 41.0388C31.4366 41.0388 31.493 41.0361 31.5495 41.0305C32.0577 40.9802 32.5115 40.7077 32.7947 40.2829L35.01 36.9601L40.3312 38.8951C41.3895 39.2799 42.1006 40.2952 42.1006 41.4213V47.735C42.1006 48.188 42.4679 48.5553 42.9209 48.5553C43.374 48.5553 43.7413 48.188 43.7413 47.735V41.4213C43.7413 40.2807 43.2881 39.211 42.528 38.4199L42.7306 38.3621C42.935 38.3037 43.214 38.2237 43.494 38.0864L45.5884 40.1809V47.735C45.5884 48.188 45.9557 48.5553 46.4087 48.5553C46.8617 48.5553 47.229 48.188 47.229 47.735V40.1809L49.3089 38.101C49.4195 38.1572 49.5356 38.2047 49.6579 38.2396L53.0459 39.2075C53.8192 39.4285 54.3594 40.1446 54.3594 40.9489V47.735C54.3594 48.188 54.7267 48.5553 55.1797 48.5553C55.6327 48.5553 56 48.188 56 47.735V40.9489C56 39.4157 54.9706 38.0508 53.4966 37.6296ZM5.26258 36.1807C3.72816 35.6286 2.95848 34.8925 2.62992 34.4905C2.85392 33.9049 2.99917 33.2342 3.0975 32.5263C3.54988 33.6109 4.30752 34.5369 5.26258 35.1975V36.1807ZM9.96187 38.4008C9.2622 39.0656 8.16616 39.0655 7.4667 38.4007L6.70381 37.6757C6.83255 37.4346 6.90331 37.1611 6.90331 36.8747V36.0003C7.47556 36.1792 8.08391 36.2756 8.71434 36.2756C9.34402 36.2756 9.95203 36.1787 10.5253 36.0009L10.5252 36.8746C10.5252 37.1611 10.5958 37.4347 10.7247 37.676L9.96187 38.4008ZM8.71456 34.635C6.265 34.635 4.2723 32.6422 4.2723 30.1927C4.2723 29.7397 3.90502 29.3724 3.45198 29.3724C3.40605 29.3724 3.3612 29.3771 3.31734 29.3845C3.31975 29.3139 3.32205 29.2433 3.32445 29.1734C3.34272 28.6093 3.36033 28.0766 3.39281 27.6196C3.49759 26.1457 4.08658 24.7874 5.05127 23.795C6.02459 22.7935 7.3255 22.2421 8.71434 22.2421C10.1032 22.2421 11.404 22.7935 12.3774 23.795C13.3421 24.7874 13.9311 26.1457 14.0359 27.6196C14.0683 28.0764 14.086 28.6091 14.1046 29.173C14.1062 29.2215 14.1078 29.2706 14.1095 29.3194C13.217 27.9443 11.8386 26.931 10.0577 26.3587C8.41236 25.8301 6.99727 25.8628 6.93755 25.8643C6.72273 25.8704 6.51886 25.9603 6.36978 26.1149L4.88972 27.6499C4.57527 27.976 4.58467 28.4954 4.91083 28.8098C5.23698 29.1243 5.7563 29.1147 6.07075 28.7887L7.30231 27.5115C8.36292 27.5634 11.7751 27.9602 13.1021 30.8824C12.7682 33.0357 10.9174 34.635 8.71456 34.635ZM12.1657 36.1834L12.1658 35.2051C13.1201 34.5481 13.8788 33.6238 14.3315 32.531C14.4298 33.2373 14.575 33.9065 14.7985 34.4907C14.4718 34.8889 13.6986 35.6315 12.1657 36.1834ZM20.0597 22.8753V20.8401C20.0597 20.7166 20.0318 20.5947 19.9781 20.4834C19.4503 19.3903 19.1826 18.2305 19.1826 17.0361V15.282C19.1826 11.8652 21.9624 9.08556 25.379 9.08556H36.8382V17.0362C36.8382 18.2306 36.5705 19.3904 36.0427 20.4835C35.989 20.5948 35.9611 20.7167 35.9611 20.8402V23.1759C35.9611 25.3974 35.068 27.4579 33.4464 28.9779C33.244 29.1676 33.0339 29.3454 32.8167 29.5111C32.8118 29.5144 32.8073 29.518 32.8025 29.5214C31.2834 30.6748 29.4228 31.2353 27.4796 31.1094C23.3189 30.84 20.0597 27.2232 20.0597 22.8753ZM24.6785 39.3812C24.6728 39.3869 24.6596 39.4004 24.6328 39.3975C24.6061 39.3949 24.5956 39.3793 24.5911 39.3725L22.0399 35.5457L22.8609 34.683L26.7311 37.3285L24.6785 39.3812ZM28.0104 36.2156L23.5681 33.1791V31.6479C24.7175 32.2692 26.0046 32.6578 27.3734 32.7464C27.5896 32.7604 27.8045 32.7673 28.0188 32.7673C29.5874 32.7673 31.097 32.3924 32.4527 31.6807V33.1791L28.0104 36.2156ZM31.4297 39.3727C31.4252 39.3795 31.4147 39.3951 31.388 39.3977C31.3612 39.4011 31.3481 39.387 31.3423 39.3815L29.2896 37.3288L33.1599 34.6832L33.981 35.5459L31.4297 39.3727ZM46.4087 38.6806L44.5471 36.8191C44.5796 36.6716 44.598 36.51 44.5979 36.3319L44.5978 35.9857C45.1143 36.1552 45.6588 36.2558 46.2222 36.2727C46.2854 36.2747 46.3481 36.2755 46.4111 36.2755C47.0337 36.2755 47.6413 36.1815 48.2197 36.002V36.3323C48.2197 36.4959 48.2403 36.6563 48.279 36.8104L46.4087 38.6806ZM49.5021 33.3809C48.6327 34.2246 47.4842 34.6702 46.2715 34.6328C43.8977 34.5616 41.9664 32.4707 41.9664 29.972V28.4385C41.9664 28.3111 41.9368 28.1855 41.8798 28.0716L41.3731 27.0582C41.1875 26.6868 41.0893 26.2712 41.0893 25.856V25.8071C41.0893 23.8412 42.6887 22.2419 44.6545 22.2419H51.7281V25.649C51.7281 26.1996 51.598 26.7509 51.3518 27.2434L50.9377 28.0716C50.8807 28.1856 50.8511 28.3111 50.8511 28.4385V30.1926C50.8511 31.4045 50.372 32.5368 49.5021 33.3809Z" fill="#00171F"/>
</g>
</g>
<g id="Group_5">
<g id="Group_6">
<path id="Vector_3" d="M51.6713 41.6516C51.2182 41.6516 50.851 42.0189 50.851 42.4719V47.7345C50.851 48.1875 51.2182 48.5548 51.6713 48.5548C52.1243 48.5548 52.4916 48.1875 52.4916 47.7345V42.4719C52.4916 42.019 52.1243 41.6516 51.6713 41.6516Z" fill="#FFA85C"/>
</g>
</g>
<g id="Group_7">
<g id="Group_8">
<path id="Vector_4" d="M4.32874 42.7358C3.8757 42.7358 3.50842 43.1031 3.50842 43.5562V47.7344C3.50842 48.1874 3.8757 48.5547 4.32874 48.5547C4.78177 48.5547 5.14905 48.1874 5.14905 47.7344V43.5562C5.14905 43.1032 4.78177 42.7358 4.32874 42.7358Z" fill="#FFA85C"/>
</g>
</g>
<g id="Group_9">
<g id="Group_10">
<path id="Vector_5" d="M34.7301 17.3333C31.6275 14.2307 25.1362 14.8239 22.4891 15.2229C21.6554 15.3485 21.0503 16.0541 21.0503 16.9006V18.7904C21.0503 19.2434 21.4176 19.6107 21.8706 19.6107C22.3237 19.6107 22.6909 19.2434 22.6909 18.7904V16.9005C22.6909 16.8726 22.7093 16.8487 22.7338 16.845C23.7911 16.6857 25.8893 16.4398 28.0631 16.5847C30.6212 16.755 32.474 17.3971 33.57 18.4933C33.8904 18.8137 34.4098 18.8137 34.7301 18.4933C35.0504 18.1729 35.0504 17.6535 34.7301 17.3333Z" fill="#FFA85C"/>
</g>
</g>
<g id="Group_11">
<g id="Group_12">
<path id="Vector_6" d="M18.3623 43.4058C17.9093 43.4058 17.542 43.773 17.542 44.2261V47.7345C17.542 48.1875 17.9093 48.5548 18.3623 48.5548C18.8153 48.5548 19.1826 48.1875 19.1826 47.7345V44.2261C19.1826 43.7732 18.8153 43.4058 18.3623 43.4058Z" fill="#FFA85C"/>
</g>
</g>
<g id="Group_13">
<g id="Group_14">
<path id="Vector_7" d="M37.6585 43.4058C37.2054 43.4058 36.8382 43.773 36.8382 44.2261V47.7345C36.8382 48.1875 37.2054 48.5548 37.6585 48.5548C38.1115 48.5548 38.4788 48.1875 38.4788 47.7345V44.2261C38.4788 43.7732 38.1115 43.4058 37.6585 43.4058Z" fill="#FFA85C"/>
</g>
</g>
</g>
</svg>
