<svg width="56" height="56" viewBox="0 0 56 56" fill="none" xmlns="http://www.w3.org/2000/svg">
<g id="Capa_1" clip-path="url(#clip0_29_3185)">
<g id="Group">
<path id="Vector" d="M10.7 37.46H8.74001C8.29001 37.46 7.92001 37.83 7.92001 38.28C7.92001 38.73 8.29001 39.1 8.74001 39.1H10.7C11.15 39.1 11.52 38.73 11.52 38.28C11.52 37.83 11.15 37.46 10.7 37.46Z" fill="#FFA85C"/>
<path id="Vector_2" d="M55.21 37.2L50.92 32.91C49.69 31.68 47.71 31.68 46.48 32.91L42.19 37.2C40.51 38.88 41.7 41.75 44.07 41.75H44.45V47.9001C44.45 49.4601 45.72 50.73 47.28 50.73H50.11C51.67 50.73 52.94 49.4601 52.94 47.9001V41.75H53.32C55.69 41.75 56.89 38.88 55.2 37.2H55.21ZM53.33 40.11H52.6C51.89 40.11 51.32 40.69 51.32 41.39V47.9001C51.32 48.5601 50.79 49.09 50.13 49.09H47.3C46.64 49.09 46.11 48.5601 46.11 47.9001V41.39C46.11 40.68 45.53 40.11 44.83 40.11H44.1C43.19 40.11 42.73 39.01 43.38 38.36L47.67 34.07C48.25 33.49 49.2 33.49 49.79 34.07L54.08 38.36C54.73 39.01 54.27 40.11 53.36 40.11H53.33Z" fill="#FFA85C"/>
<path id="Vector_3" d="M9.51 23.09L13.8 18.8C15.48 17.12 14.29 14.25 11.92 14.25H11.54V8.10002C11.54 6.54002 10.27 5.27002 8.71 5.27002H5.88C4.32 5.27002 3.05 6.54002 3.05 8.10002V14.25H2.67C0.300003 14.25 -0.899997 17.12 0.790003 18.8L5.08 23.09C6.31 24.32 8.29 24.32 9.52 23.09H9.51ZM2.67 15.89H3.4C4.11 15.89 4.68 15.31 4.68 14.61V8.10002C4.68 7.44002 5.22 6.91002 5.87 6.91002H8.7C9.36 6.91002 9.89 7.45002 9.89 8.10002V14.61C9.89 15.32 10.47 15.89 11.17 15.89H11.9C12.81 15.89 13.27 16.99 12.62 17.64L8.33 21.93C7.75 22.51 6.8 22.51 6.21 21.93L1.92 17.64C1.27 16.99 1.73 15.89 2.64 15.89H2.67Z" fill="#FFA85C"/>
<path id="Vector_4" d="M46.17 18.5399C46.62 18.5399 46.99 18.1699 46.99 17.7199C46.99 17.2699 46.62 16.8999 46.17 16.8999H44.21C43.76 16.8999 43.39 17.2699 43.39 17.7199C43.39 18.1699 43.76 18.5399 44.21 18.5399H46.17Z" fill="#FFA85C"/>
<path id="Vector_5" d="M32.32 39.1C32.77 39.1 33.14 38.73 33.14 38.28C33.14 37.83 32.77 37.46 32.32 37.46H30.36C29.91 37.46 29.54 37.83 29.54 38.28C29.54 38.73 29.91 39.1 30.36 39.1H32.32Z" fill="#FFA85C"/>
<path id="Vector_6" d="M26.17 38.2799C26.17 35.0599 23.64 32.4399 20.53 32.4399C17.42 32.4399 14.89 35.0599 14.89 38.2799C14.89 41.4999 17.42 44.1199 20.53 44.1199C23.64 44.1199 26.17 41.4999 26.17 38.2799ZM16.53 38.2799C16.53 35.9599 18.32 34.0799 20.53 34.0799C22.74 34.0799 24.53 35.9699 24.53 38.2799C24.53 40.5899 22.74 42.4799 20.53 42.4799C18.32 42.4799 16.53 40.5899 16.53 38.2799Z" fill="#00171F"/>
<path id="Vector_7" d="M35.47 13.21C33.07 13.21 31.11 15.23 31.11 17.72C31.11 20.21 33.07 22.23 35.47 22.23C37.87 22.23 39.83 20.21 39.83 17.72C39.83 15.23 37.87 13.21 35.47 13.21ZM35.47 20.59C33.97 20.59 32.75 19.3 32.75 17.72C32.75 16.14 33.97 14.85 35.47 14.85C36.97 14.85 38.19 16.14 38.19 17.72C38.19 19.3 36.97 20.59 35.47 20.59Z" fill="#00171F"/>
<path id="Vector_8" d="M48.43 29.47C51.48 29.47 53.96 26.99 53.96 23.94V11.51C53.96 8.45998 51.48 5.97998 48.43 5.97998H42.92C42.47 5.97998 42.1 6.34998 42.1 6.79998C42.1 7.24998 42.47 7.61998 42.92 7.61998H45.58V9.56998C45.58 12.21 47.72 14.35 50.36 14.35H52.31V21.09H50.36C47.72 21.09 45.58 23.23 45.58 25.87V27.82H37.02C36.06 27.02 34.82 26.53 33.48 26.53H25.36V25.87C25.36 23.23 23.22 21.09 20.58 21.09H18.63V14.35H20.58C23.22 14.35 25.36 12.21 25.36 9.56998V7.61998H39.03C39.48 7.61998 39.85 7.24998 39.85 6.79998C39.85 6.34998 39.48 5.97998 39.03 5.97998H22.52C19.47 5.97998 16.99 8.45998 16.99 11.51V23.94C16.99 24.86 17.22 25.75 17.64 26.54H7.57C4.52 26.54 2.04 29.02 2.04 32.07V44.5C2.04 47.55 4.52 50.03 7.57 50.03H9.99C10.44 50.03 10.81 49.66 10.81 49.21C10.81 48.76 10.44 48.39 9.99 48.39H7.57C5.43 48.39 3.68 46.65 3.68 44.5V32.07C3.68 29.93 5.42 28.18 7.57 28.18H33.48C35.62 28.18 37.37 29.92 37.37 32.07V44.5C37.37 46.64 35.63 48.39 33.48 48.39H13.9C13.45 48.39 13.08 48.76 13.08 49.21C13.08 49.66 13.45 50.03 13.9 50.03H33.48C36.53 50.03 39.01 47.55 39.01 44.5V32.07C39.01 31.13 38.77 30.25 38.36 29.47H48.43ZM50.36 12.71C48.63 12.71 47.22 11.3 47.22 9.56998V7.61998H48.42C50.56 7.61998 52.31 9.35998 52.31 11.51V12.71H50.36ZM47.22 25.87C47.22 24.14 48.63 22.73 50.36 22.73H52.31V23.93C52.31 26.07 50.57 27.82 48.42 27.82H47.22V25.87ZM18.63 11.5C18.63 9.35998 20.37 7.60998 22.52 7.60998H23.72V9.55998C23.72 11.29 22.31 12.7 20.58 12.7H18.63V11.5ZM23.72 26.53H19.63C18.99 25.82 18.63 24.91 18.63 23.93V22.73H20.58C22.31 22.73 23.72 24.14 23.72 25.87V26.53Z" fill="#00171F"/>
<path id="Vector_9" d="M24.77 16.8999C24.32 16.8999 23.95 17.2699 23.95 17.7199C23.95 18.1699 24.32 18.5399 24.77 18.5399H26.73C27.18 18.5399 27.55 18.1699 27.55 17.7199C27.55 17.2699 27.18 16.8999 26.73 16.8999H24.77Z" fill="#FFA85C"/>
</g>
</g>
<defs>
<clipPath id="clip0_29_3185">
<rect width="56" height="56" fill="white"/>
</clipPath>
</defs>
</svg>
